<?xml version="1.0" encoding="UTF-8" standalone="no"?>
<!-- Generator: Adobe Illustrator 17.1.0, SVG Export Plug-In . SVG Version: 6.00 Build 0)  -->

<svg
   xmlns:dc="http://purl.org/dc/elements/1.1/"
   xmlns:cc="http://creativecommons.org/ns#"
   xmlns:rdf="http://www.w3.org/1999/02/22-rdf-syntax-ns#"
   xmlns:svg="http://www.w3.org/2000/svg"
   xmlns="http://www.w3.org/2000/svg"
   xmlns:sodipodi="http://sodipodi.sourceforge.net/DTD/sodipodi-0.dtd"
   xmlns:inkscape="http://www.inkscape.org/namespaces/inkscape"
   version="1.1"
   id="Linkedin"
   x="0px"
   y="0px"
   viewBox="0 0 128 128"
   enable-background="new 0 0 128 128"
   xml:space="preserve"
   sodipodi:docname="Linkedin.svg"
   inkscape:version="0.92.3 (unknown)"><metadata
   id="metadata15"><rdf:RDF><cc:Work
       rdf:about=""><dc:format>image/svg+xml</dc:format><dc:type
         rdf:resource="http://purl.org/dc/dcmitype/StillImage" /><dc:title></dc:title></cc:Work></rdf:RDF></metadata><defs
   id="defs13" /><sodipodi:namedview
   pagecolor="#ffffff"
   bordercolor="#666666"
   borderopacity="1"
   objecttolerance="10"
   gridtolerance="10"
   guidetolerance="10"
   inkscape:pageopacity="0"
   inkscape:pageshadow="2"
   inkscape:window-width="640"
   inkscape:window-height="480"
   id="namedview11"
   showgrid="false"
   inkscape:zoom="3.6875"
   inkscape:cx="42.166566"
   inkscape:cy="35.700109"
   inkscape:current-layer="Linkedin" />
<g
   id="g8">
	<rect
   id="linkedin-back"
   fill="#0076B2"
   width="128"
   height="128"
   style="fill:#072233;fill-opacity:1" />
	<g
   id="linkedin-linkedin">
		<path
   fill="#FFFFFF"
   d="M29.0752,51.7471h14.8686v47.792H29.0752V51.7471z M36.5137,27.9897c4.7514,0,8.6089,3.8589,8.6089,8.6133    c0,4.7554-3.8575,8.6143-8.6089,8.6143c-4.7705,0-8.6172-3.8589-8.6172-8.6143C27.8965,31.8486,31.7432,27.9897,36.5137,27.9897"
   id="path3"
   style="fill:#ffffff;fill-opacity:1" />
		<path
   fill="#FFFFFF"
   d="M53.2622,51.7471H67.5v6.5337h0.2041c1.9805-3.7574,6.8272-7.7198,14.0537-7.7198    c15.0391,0,17.8184,9.896,17.8184,22.7671v26.211H84.7246V76.2979c0-5.542-0.0957-12.6719-7.7187-12.6719    c-7.7286,0-8.9082,6.04-8.9082,12.2754v23.6377H53.2622V51.7471z"
   id="path5"
   style="fill:#ffffff;fill-opacity:1" />
	</g>
</g>
</svg>