<?xml version="1.0" encoding="UTF-8" standalone="no"?>
<!-- Generator: Adobe Illustrator 16.0.0, SVG Export Plug-In . SVG Version: 6.00 Build 0)  -->

<svg
   xmlns:dc="http://purl.org/dc/elements/1.1/"
   xmlns:cc="http://creativecommons.org/ns#"
   xmlns:rdf="http://www.w3.org/1999/02/22-rdf-syntax-ns#"
   xmlns:svg="http://www.w3.org/2000/svg"
   xmlns="http://www.w3.org/2000/svg"
   xmlns:sodipodi="http://sodipodi.sourceforge.net/DTD/sodipodi-0.dtd"
   xmlns:inkscape="http://www.inkscape.org/namespaces/inkscape"
   version="1.1"
   id="Layer_1"
   x="0px"
   y="0px"
   width="500"
   height="500"
   viewBox="0 0 500 500"
   enable-background="new 0 0 525 500"
   xml:space="preserve"
   sodipodi:docname="meetup.svg"
   inkscape:version="0.92.3 (unknown)"><metadata
   id="metadata9"><rdf:RDF><cc:Work
       rdf:about=""><dc:format>image/svg+xml</dc:format><dc:type
         rdf:resource="http://purl.org/dc/dcmitype/StillImage" /><dc:title></dc:title></cc:Work></rdf:RDF></metadata><defs
   id="defs7" /><sodipodi:namedview
   pagecolor="#072233"
   bordercolor="#666666"
   borderopacity="1"
   objecttolerance="10"
   gridtolerance="10"
   guidetolerance="10"
   inkscape:pageopacity="1"
   inkscape:pageshadow="2"
   inkscape:window-width="640"
   inkscape:window-height="480"
   id="namedview5"
   showgrid="false"
   fit-margin-top="0"
   fit-margin-left="0"
   fit-margin-right="0"
   fit-margin-bottom="0"
   inkscape:zoom="0.944"
   inkscape:cx="124.07887"
   inkscape:cy="275.20431"
   inkscape:current-layer="Layer_1" />
<path
   d="m 406.68679,304.02899 c 0.0311,34.4891 -24.80581,64.19984 -58.57948,70.0415 -4.25241,0.72983 -8.54649,1.16181 -12.8618,1.12089 -1.45511,-0.0159 -2.02654,0.56612 -2.48808,1.89922 -6.74276,19.359 -20.19873,30.89907 -40.52553,33.80929 -13.44687,1.92347 -25.64932,-1.68247 -36.34589,-10.08951 -1.48997,-1.17166 -2.40092,-1.19137 -3.95456,-0.0811 -12.5109,8.94816 -26.53829,12.91106 -41.85634,11.9857 -29.89111,-1.80449 -55.04176,-24.65045 -59.74661,-54.11033 -0.32361,-2.0364 -0.66768,-4.08795 -0.69875,-6.14026 -0.0311,-1.70672 -0.67905,-2.36531 -2.30923,-2.68437 -9.04971,-1.76432 -17.26198,-5.49152 -24.50721,-11.16265 -13.33394,-10.43965 -21.33401,-24.07068 -23.196093,-40.93175 -2.123549,-19.29838 3.837093,-35.98438 17.412043,-49.889 1.09436,-1.11559 1.16257,-1.8924 0.41607,-3.20427 -5.21869,-9.1111 -7.69237,-18.97932 -7.2907,-29.44397 1.0019,-26.11693 19.1756,-47.69421 44.45432,-53.03643 2.92461,-0.62146 4.45778,-1.76811 5.74313,-4.53964 12.46846,-26.86267 33.40383,-43.20005 62.45523,-48.5885 20.39349,-3.7848 39.632,0.26753 57.48436,10.7678 1.50058,0.88519 2.75713,0.95643 4.38124,0.48352 28.35415,-8.22666 53.47827,-2.24177 74.80774,18.03956 12.61397,11.99101 19.52498,27.16657 21.57122,44.47933 0.4479,3.7848 0.65177,7.60522 0.36378,11.41048 -0.10838,1.43919 0.33422,2.04094 1.69687,2.54492 12.78222,4.73138 21.59623,13.55449 25.45227,26.605 4.80262,16.23355 0.76848,30.4686 -11.36197,42.305 -1.05117,1.02767 -0.82911,1.6567 -0.23343,2.68362 6.41082,11.04442 9.7318,22.93236 9.7174,35.72594 z M 280.1689,298.49124 c 0.0106,14.67462 9.43092,27.64479 22.78988,32.0518 6.69501,2.2107 13.60071,3.25959 20.61024,3.56805 5.00421,0.21599 10.00008,-0.13339 14.62384,-2.43807 3.6355,-1.81509 5.34828,-4.81322 5.18383,-8.80795 -0.16446,-4.02125 -1.96516,-7.02848 -5.81134,-8.6291 -1.33688,-0.55552 -2.69423,-1.00796 -4.11372,-1.25427 -4.24255,-0.75711 -8.50556,-1.39448 -12.72689,-2.23117 -6.96709,-1.38766 -9.88867,-5.07545 -9.98113,-12.1206 -0.0811,-6.23195 1.60971,-12.10999 3.52712,-17.92511 3.50742,-10.64428 8.23652,-20.78911 12.76858,-31.01731 4.37517,-9.87731 8.9618,-19.67352 12.05239,-30.07679 1.70217,-5.71282 2.51461,-11.44079 0.96704,-17.34914 -2.35546,-8.96786 -7.72951,-14.97852 -16.99597,-16.70722 -8.48359,-1.57864 -16.92777,-1.75826 -24.59967,3.30128 -2.55099,1.6764 -5.00421,1.27549 -7.21871,-0.67905 -1.69156,-1.48618 -3.30127,-3.05952 -4.95722,-4.58663 -7.82575,-7.22476 -18.17218,-7.57944 -26.57392,-0.98144 -3.38994,2.66316 -6.24256,5.96519 -9.92505,8.27896 -3.29067,2.06671 -6.60862,2.65255 -10.25245,0.70937 -3.47104,-1.85147 -7.06486,-3.48089 -10.64958,-5.10576 -3.63095,-1.64003 -7.14822,-3.66582 -11.2354,-4.01065 -12.92773,-1.10042 -26.45645,6.5821 -32.15942,18.2601 -2.53052,5.16791 -4.59647,10.53665 -6.55557,15.94026 -9.04592,24.98088 -16.41392,50.49605 -24.0396,75.92332 -3.41496,11.38016 0.61539,22.57843 10.25169,28.72475 7.51806,4.79125 15.75004,5.9758 24.27227,3.41496 6.90419,-2.07808 10.6852,-7.63553 13.32789,-13.87886 8.78219,-20.7118 16.69131,-41.77526 25.06273,-62.65152 2.30392,-5.74464 4.53433,-11.51354 6.97846,-17.19604 2.46762,-5.73783 9.55824,-7.69237 13.76441,-3.88711 2.56766,2.32287 3.24444,5.41497 2.99283,8.7208 -0.27663,3.53318 -1.64534,6.79202 -2.93068,10.03721 -5.44681,13.77048 -10.99441,27.5008 -16.46546,41.26067 -1.10574,2.78289 -2.30393,5.54305 -2.79275,8.52981 -0.83745,5.1285 1.19288,9.6742 5.38769,11.48323 4.27969,1.84693 8.72231,2.15538 13.15888,0.54491 5.1626,-1.87118 8.24789,-5.91289 10.62456,-10.58288 8.16604,-16.03651 16.26918,-32.11243 24.42991,-48.14969 3.76964,-7.40893 7.60522,-14.783 11.45595,-22.14797 1.43086,-2.72984 3.10726,-5.31645 5.78027,-7.01332 2.41305,-1.5271 5.0133,-1.64078 7.48698,-0.25161 2.41382,1.35204 2.57524,3.82117 2.47369,6.25848 -0.0553,1.31036 -0.42213,2.59116 -0.92612,3.80981 -1.05798,2.53431 -2.04624,5.10652 -3.21942,7.59081 -6.78748,14.27901 -13.67802,28.5027 -20.40487,42.81278 -2.83519,6.03946 -5.78633,12.10772 -5.43619,18.4579 z m 95.20653,105.2339 c 0.0159,-9.47184 -7.92352,-17.39157 -17.47343,-17.41734 -9.7856,-0.0356 -17.72428,7.79544 -17.76672,17.5098 -0.0409,9.4961 8.03341,17.55377 17.5818,17.56589 9.6833,0.01 17.6432,-7.94929 17.65835,-17.65835 z M 80.18015,258.57731 c 9.209625,0.0205 16.958835,-7.67721 16.922458,-16.80423 -0.04168,-9.14217 -7.625678,-16.72238 -16.758,-16.74814 -9.359683,-0.025 -16.790588,7.40059 -16.785283,16.77467 0.0076,9.27556 7.416506,16.75724 16.620825,16.7777 z M 286.40161,70.842542 c -9.25585,-0.05154 -16.79968,7.348298 -16.85197,16.521545 -0.0561,9.163394 7.46122,16.692073 16.67084,16.701923 9.17325,0.005 16.54125,-7.342999 16.55792,-16.522308 0.022,-9.224024 -7.26493,-16.65493 -16.37679,-16.70116 z M 422.67859,174.68879 c -0.0409,-7.60597 -6.52526,-14.07438 -14.16155,-14.12592 -7.79544,-0.0561 -14.39875,6.53132 -14.34646,14.31084 0.0553,7.75982 6.35019,13.98117 14.15624,13.99178 8.04175,0.0159 14.39724,-6.26758 14.35177,-14.1767 z M 130.70728,134.07535 c 0,7.14292 5.55897,12.74736 12.65489,12.75797 7.18763,0.01 12.76327,-5.62491 12.73751,-12.8709 -0.0258,-7.02847 -5.59459,-12.52605 -12.66551,-12.50483 -7.27175,0.0144 -12.7231,5.41876 -12.72689,12.61776 z m 132.93477,294.5996 c 0.0614,-5.94927 -4.83369,-10.84889 -10.85041,-10.87011 -6.17588,-0.0189 -11.02624,4.76699 -11.01033,10.86026 0.0159,6.01066 4.84127,10.77235 10.90877,10.77235 6.0622,0.005 10.89967,-4.74654 10.95197,-10.7625 z M 433.385,259.63757 c -5.78027,-0.0417 -10.79433,4.97238 -10.7481,10.74734 0.05,5.70676 4.81399,10.3919 10.58289,10.40327 6.04779,0.0114 10.58364,-4.44187 10.59804,-10.41842 0.0167,-5.91441 -4.62755,-10.69126 -10.43283,-10.73219 z M 179.51101,60.316499 c -5.09591,-0.02046 -9.02925,3.871953 -9.02925,8.942855 0,5.039071 3.97426,8.957254 9.06563,8.931486 4.9413,-0.02577 8.81325,-3.965171 8.81325,-8.968622 7.6e-4,-5.049681 -3.81056,-8.879951 -8.84963,-8.905719 z M 453.5519,211.60914 c -4.15389,-0.047 -7.91822,3.67112 -7.97051,7.8826 -0.0561,4.35547 3.5688,7.98036 7.99097,7.99097 4.39185,0.0159 7.83636,-3.39905 7.86744,-7.8106 0.0417,-4.43733 -3.45589,-8.00689 -7.8879,-8.06297 z M 138.99609,368.48651 c 0.0197,-4.21678 -3.61579,-7.84698 -7.89851,-7.88714 -4.34107,-0.0371 -7.90988,3.61503 -7.87881,8.05766 0.0356,4.34032 3.5582,7.76892 7.9455,7.7386 4.3047,-0.0265 7.81742,-3.56956 7.83182,-7.90912 z"
   id="path2"
   style="fill:#ffffff;fill-opacity:1;stroke-width:0.75786901"
   inkscape:connector-curvature="0" />
</svg>